<svg xmlns="http://www.w3.org/2000/svg" viewBox="0 0 520 430"><path d="M326.012,268.798L326.012,281.338L324.245,285.007L321.721,287.38L314.653,289.752L308.594,293.415L303.041,299.657L301.273,308.469L305.312,314.907L313.138,318.337L315.158,330.75L308.594,336.731L292.438,342.706L290.671,357.184L291.176,368.651L290.924,376.916L289.661,388.337L276.535,393.405L267.952,376.069L267.952,369.075L265.175,361.009L264.923,353.994L261.893,342.919L249.271,339.933L244.475,339.506L237.659,341.426L236.145,340.786L227.814,325.403L229.329,308.469L225.037,299.872L224.28,295.999L224.533,291.691L220.998,288.242L216.455,286.301L214.435,276.801L219.484,274.423L231.601,275.504L235.387,274.855L238.669,272.909L248.514,257.093L248.262,253.62L249.271,249.057L259.874,247.318L264.67,253.403L263.913,263.382L264.418,275.72L270.981,279.178L273.505,279.826L276.03,270.529L278.049,265.982L280.574,263.382L281.583,254.923L280.069,249.709L276.787,246.013L288.904,235.343L301.526,227.053L308.847,226.616L316.167,228.581L322.983,231.418L326.77,233.817L328.789,237.741L324.245,247.1L322.983,252.099ZM127.597,387.069L126.587,387.069L122.043,386.013L119.014,383.476L110.683,385.167L99.576,389.393L93.518,389.182L88.721,384.744L69.031,378.398L65.75,377.763L52.623,377.551L51.866,367.378L50.351,360.159L45.807,349.311L52.623,346.755L51.361,325.403L48.836,314.263L29.904,302.883L14.757,291.907L18.291,254.271L19.806,244.273L14,224.432L14.757,201.437L17.029,165.301L21.826,163.752L25.36,163.974L38.739,170.606L44.292,171.269L48.079,177.009L52.623,179.435L55.905,173.256L57.167,162.646L67.769,148.906L75.342,143.799L80.391,141.355L85.44,146.908L89.479,153.121L90.488,139.576L93.518,113.489L83.42,109.24L75.09,112.819L67.012,129.337L59.691,150.238L47.827,152.012L38.486,157.997L29.904,151.79L24.35,146.464L24.35,138.687L25.612,133.791L35.457,116.842L49.089,100.505L62.468,100.729L72.313,95.57L78.371,94.897L96.547,96.019L106.14,92.427L114.47,84.786L132.898,52.967L143.248,39.59L163.948,34.819L183.133,19.338L188.687,19.11L179.599,30.726L178.084,35.046L177.074,41.86L183.385,56.815L182.123,65.856L182.628,83.437L176.57,92.652L169.501,112.148L166.472,115.054L165.967,137.575L166.724,143.133L165.715,163.531L172.783,171.931L180.104,176.347L205.095,176.126L207.619,179.656L210.901,186.046L208.629,196.825L205.852,204.729L198.784,211.524L189.444,216.56L183.638,216.779L175.812,207.141L172.026,210.21L168.239,215.247L161.676,241.225L158.646,258.829L157.132,260.347L153.345,257.744L147.034,257.527L139.209,261.648L143.248,265.332L147.539,271.827L145.772,275.072L138.704,278.53L132.645,285.439L129.869,290.829L122.043,297.075L117.247,305.032L119.519,314.907L120.528,323.477L122.8,333.101L120.781,340.573L111.188,351.44L107.654,361.009L115.732,360.797L121.033,362.921L124.063,365.681L127.092,369.711L125.072,374.586ZM190.958,290.614L193.988,297.075L197.522,310.83L203.328,326.259L200.803,332.673L202.571,340.786L200.803,349.524L189.696,359.309L176.822,359.734L163.695,355.057L145.015,345.69L143.5,340.573L140.976,337.799L135.927,321.978L136.18,302.238L145.52,299.872L165.967,290.614L170.511,291.907L175.56,296.86L181.366,297.075L189.444,290.183ZM241.193,379.033L253.815,386.647L262.146,386.224L267.699,389.182L269.214,394.038L269.719,404.788L263.66,407.945L257.097,406.893L248.009,410.89L218.474,393.405L218.979,378.821L219.989,373.103L234.125,371.619ZM197.269,396.147L194.24,396.78L189.949,387.069L189.444,383.899L194.493,377.551L197.522,370.347L205.852,359.309L210.649,346.329L212.416,346.542L210.396,358.247L199.541,390.238ZM324.498,369.923L321.973,371.831L311.119,370.347L299.002,378.821L294.458,376.281L296.225,370.771L297.487,368.863L301.526,366.529L304.303,363.133L305.312,357.822L307.837,360.797L315.41,361.859L318.944,363.558L321.973,366.105ZM332.828,292.338L326.265,297.505L324.75,297.29L322.478,289.967L326.012,285.654L328.032,281.985L329.546,281.985L331.566,286.086ZM179.851,384.322L175.055,385.59L169.754,383.053L160.918,372.891L159.909,370.347L164.453,372.043L170.259,377.339L174.802,378.398L181.113,382.841ZM150.064,379.668L142.743,381.361L139.209,378.398L132.141,377.339L129.869,358.459L130.374,357.396L133.908,358.672L145.772,367.378L149.811,376.916ZM188.434,269.014L187.172,271.395L182.88,269.014L182.376,260.998L183.89,253.62L182.123,247.1L184.143,242.967L190.454,252.751L192.221,257.31L189.949,262.732ZM219.736,82.312L216.707,85.236L207.114,80.961L211.406,75.105L222.008,72.174L228.067,73.076L221.251,79.16ZM502.466,363.133L499.942,365.256L488.329,361.646L474.193,353.143L476.465,336.518L479.999,329.254L505.748,348.033L506,355.057Z" fill="#3a3733" stroke="rgba(237,235,232,0.16)" stroke-width="1"></path></svg>